<svg xmlns="http://www.w3.org/2000/svg" viewBox="0 0 64 64" role="img" aria-label="cloud-env-bootstrap">
  <rect width="64" height="64" rx="14" fill="#0B1220"/>
  <rect x="2" y="2" width="60" height="60" rx="12" fill="none" stroke="#1F3A5F" stroke-width="2"/>
  <!-- stacked build layers -->
  <rect x="16" y="38" width="32" height="8" rx="3" fill="#1B6BFF"/>
  <rect x="20" y="28" width="24" height="8" rx="3" fill="#3D8BFF"/>
  <!-- cloud mark -->
  <path
    d="M26.5 26c0-4.2 3.4-7.6 7.6-7.6 3.1 0 5.8 1.9 7 4.6.6-.2 1.2-.3 1.9-.3 3.3 0 6 2.6 6 5.9 0 .3 0 .6-.1.9H22.8c-.4-2.4-2.4-4.2-4.9-4.2-2.8 0-5 2.2-5 5 0 .4 0 .7.1 1.1"
    fill="none"
    stroke="#7EE0FF"
    stroke-width="2.4"
    stroke-linecap="round"
    stroke-linejoin="round"
  />
  <circle cx="32" cy="18" r="2.2" fill="#7EE0FF"/>
</svg>
